<svg width="818" height="1232" viewBox="0 0 818 1232" fill="none" xmlns="http://www.w3.org/2000/svg">
<path fill-rule="evenodd" clip-rule="evenodd" d="M47.9999 849.797L764.472 906.675L765.222 911.544C777.228 989.734 783.292 1042.78 783.415 1070.68L783.417 1071.54C783.417 1099.2 791.91 1143.21 808.896 1203.54L809.947 1207.26L46.9999 1208.59L37.9999 1026.97L47.9999 849.797ZM472.17 460.091C501.302 461.529 530.662 474.018 532.93 482C537.98 499.777 546.102 575.874 572.812 587.565C599.521 599.256 656.543 588.598 672.846 616.517C689.149 644.437 742.69 758.25 742.69 784.769C742.69 802.449 568.208 808.586 219.243 803.18C223.698 660.778 242.271 585.922 274.961 578.612L277.88 577.967C325.155 567.64 353.41 567.307 369.537 550.66C385.993 533.672 388.979 504.514 395.807 482C399.568 469.595 436.421 458.327 472.17 460.091Z" fill="white"/>
<path fill-rule="evenodd" clip-rule="evenodd" d="M536.057 504.597C536.167 504.512 536.278 504.487 536.397 504.547C538.667 505.637 539.137 507.817 539.917 510.087C541.057 513.407 542.377 516.647 543.597 519.937C546.028 526.537 548.347 533.127 551.057 539.617C553.837 546.297 556.717 552.857 560.017 559.307C561.607 562.427 563.317 565.487 565.057 568.527C566.257 570.637 567.377 573.537 568.957 575.517C569.077 574.887 569.247 574.287 569.447 573.727C569.238 573.827 569.037 573.937 568.847 574.057C568.447 574.307 567.967 573.807 568.207 573.417C569.067 571.997 570.187 571.037 571.467 570.387C575.007 566.457 653.036 585.212 674.367 606.277C713 644.428 739.077 691.597 756.227 741.777C765.697 769.467 774.417 797.427 783.427 825.267C792.947 854.707 802.887 884.017 812.427 913.437C814.517 919.907 809.957 925.787 804.197 927.917C793.467 931.877 782.657 935.607 771.757 939.057C777.047 959.367 780.747 980.107 783.407 1000.91C788.897 1043.8 789.587 1087.56 798.238 1130C800.224 1139.74 802.737 1149.34 805.392 1158.92L806.007 1161.13C807.587 1166.75 809.028 1172.42 810.967 1177.92C812.637 1182.65 814.797 1187.42 815.967 1192.3C817.337 1198.04 815.317 1204.31 809.947 1207.26C805.637 1209.63 799.467 1208.65 796.867 1204.2C796.337 1203.29 796.017 1202.3 795.887 1201.3C795.497 1200.47 795.137 1199.62 794.817 1198.75C794.692 1198.41 794.582 1198.06 794.477 1197.72L794.167 1196.68C793.407 1194.2 792.707 1191.7 792.007 1189.2C790.867 1185.19 789.72 1181.19 788.452 1177.21L787.807 1175.23C784.667 1165.67 781.857 1156.03 779.407 1146.27C770.639 1111.27 768.779 1075.04 766.372 1039.17L766.247 1037.32C764.067 1005.18 762.767 973.107 765.437 941.037L765.072 941.155V941.155L764.707 941.267C761.238 942.327 757.757 943.367 754.267 944.377C754.157 944.417 754.057 944.457 753.947 944.487C751.714 945.178 749.418 945.835 747.083 946.446L745.677 946.807L744.687 947.077L743.645 947.373C740.338 948.332 736.966 949.435 733.537 949.327C727.857 950.237 722.077 950.787 716.397 950.807C718.147 979.417 720.167 1008.01 722.577 1036.57C724.997 1065.28 728.207 1093.88 731.537 1122.48C733.177 1136.61 734.937 1150.71 736.877 1164.79C737.857 1171.93 738.877 1179.03 740.177 1186.11C741.517 1193.35 743.887 1201.09 742.457 1208.41C742.427 1208.4 742.397 1208.39 742.367 1208.39C741.887 1210.51 740.607 1212.41 738.377 1213.72C734.287 1216.11 728.567 1214.71 726.217 1210.53C726.017 1210.18 725.827 1209.82 725.647 1209.45C723.238 1210.48 720.597 1210.88 717.357 1210.91L673.417 1211.35V1211.35C653.447 1211.55 633.477 1211.76 613.497 1212.05C550.768 1212.97 488.039 1214.04 425.31 1214.8L401.787 1215.07C366.507 1215.44 331.207 1216.17 295.927 1216.16C278.278 1216.16 260.647 1216.1 242.997 1215.67C234.447 1215.46 225.917 1215.13 217.377 1214.78L215.869 1214.71C209.052 1214.37 201.813 1213.74 195.147 1215.27C193.307 1218.85 188.607 1219.59 186.147 1215.93C180.525 1207.55 178.991 1195.87 177.953 1185.63L177.587 1181.95C176.437 1170.48 175.427 1159.01 174.677 1147.52C172.017 1106.81 171.047 1066.06 172.267 1025.27C172.887 1004.48 174.797 983.807 177.057 963.137C177.767 956.687 178.507 950.247 179.307 943.817L179.321 941.53C179.322 940.799 179.317 940.102 179.297 939.447L179.098 933.242C178.932 928.071 178.778 922.897 178.714 917.722L178.687 914.617L178.657 908.837C173.717 908.367 168.447 906.727 164.187 905.937C157.278 904.647 150.387 903.257 143.517 901.787C129.757 898.827 116.147 895.327 102.627 891.457L99.7516 890.631C87.2763 887.036 74.6291 883.203 62.827 877.827C58.207 875.717 53.597 873.337 49.547 870.217C49.307 873.497 48.937 876.767 48.717 880.017C48.278 886.447 47.757 892.857 47.327 899.287L46.9158 905.405C46.2403 915.598 45.632 925.782 45.357 936.007C44.137 980.607 43.927 1025.4 46.287 1069.97C47.457 1092.28 49.127 1114.59 51.537 1136.81C52.717 1147.74 53.967 1158.7 55.507 1169.59C57.097 1180.78 59.967 1191.9 60.847 1203.17C61.687 1214.04 45.067 1215.62 42.337 1205.68C39.0681 1193.76 38.2353 1180.9 36.5123 1168.65L36.317 1167.29C34.407 1154.27 32.877 1141.2 31.557 1128.11C26.9997 1082.96 25.817 1037.58 28.207 992.257C29.3433 970.552 32.0374 948.93 35.2983 927.454L35.677 924.977C37.1614 915.359 38.5511 905.741 40.2322 896.166L40.877 892.577C42.387 884.347 43.547 875.397 45.997 867.167L45.2687 866.495C43.9072 865.227 42.4316 863.759 41.357 862.177C37.657 861.677 34.507 859.017 34.897 854.187C36.167 838.317 41.967 822.177 47.137 807.197C52.327 792.137 58.347 777.357 65.167 762.957C89.157 712.347 123.707 666.397 165.957 629.587C188.367 610.057 212.927 592.737 240.067 580.407C253.447 574.317 267.287 569.607 281.787 567.067C288.967 565.807 296.217 564.827 303.517 564.617C309.439 561.12 316.471 562.592 322.206 566.425L322.517 566.637H322.528L323.997 566.927V566.927C324.357 566.997 324.347 567.567 323.997 567.647C323.977 567.647 323.947 567.657 323.927 567.667C324.867 568.407 325.757 569.197 326.587 570.047C329.327 572.847 329.317 576.227 327.907 578.957C336.297 586.737 341.597 596.727 347.147 606.797C353.097 617.577 360.887 626.897 370.367 634.757C405.117 663.577 456.227 676.327 499.767 662.717C531.787 652.717 559.137 625.647 566.697 593.057C564.907 593.697 562.967 593.797 561.127 593.137C552.486 590.056 549.192 580.613 545.887 572.718L545.727 572.337C542.497 564.687 539.787 556.917 537.647 548.897C535.488 540.797 534.217 532.247 533.687 523.887C533.482 520.581 533.572 517.276 533.743 513.97L533.895 511.237C534.012 508.761 533.976 506.23 536.057 504.597ZM395.467 482.307C395.587 482.007 396.057 481.847 396.237 482.207C403.886 497.987 398.867 519.607 391.636 534.657C384.067 550.397 372.667 562.337 359.157 572.667C357.297 574.087 355.386 575.487 353.447 576.857C342.176 584.817 332.136 563.357 345.147 559.257C358.707 552.367 369.727 540.087 377.386 527.187C381.527 520.217 385.197 512.957 388.007 505.337C390.807 497.737 392.487 489.827 395.467 482.307Z" fill="black"/>
<path fill-rule="evenodd" clip-rule="evenodd" d="M624.142 209.138C625.232 199.013 613.379 172.001 613.665 177.48C594.663 148.181 557.58 136.659 525.585 126.987C457.664 104.565 404.626 131.644 356.904 179.637C328.73 205.954 301.922 235.351 287.779 271.782C259.956 341.28 301.661 420.526 365.084 453.726C370.202 456.496 375.779 459.126 380.653 462.472C406.871 477.619 437.658 482.859 466.873 489.452C521.529 501.945 590.172 495.991 622.382 443.955C644.229 407.025 638.425 362.256 636.715 321.272C634.146 285.363 629.637 244.784 624.142 209.138Z" fill="white"/>
<path fill-rule="evenodd" clip-rule="evenodd" d="M331.995 106.654C367.405 73.5517 419.742 57.5077 467.594 60.3137C493.511 61.8337 518.489 68.3277 541.911 79.4847C549.236 82.9737 556.374 87.0577 562.956 91.8667C567.396 93.9387 571.737 96.1807 575.942 98.6187C597.002 110.819 613.282 129.298 623.702 151.218C628.676 161.68 632.601 172.713 634.824 184.08L635.182 185.951C636.316 191.655 638.558 199.171 635.722 204.509C633.842 208.048 629.902 210.279 626.172 209.979C626.982 213.259 627.952 216.538 628.572 219.839L630.261 228.839C630.541 230.339 630.818 231.839 631.092 233.339C632.722 242.279 634.222 251.208 635.422 260.218C637.932 278.979 640.202 297.779 642.202 316.609C643.635 330.075 644.978 343.556 646.283 357.033L647.062 365.119C648.402 379.038 649.452 393.079 648.541 407.059C647.17 428.03 640.72 447.163 628.201 462.728C629.394 465.597 629.796 468.827 630.694 472.394C631.937 477.33 633.556 482.163 635.279 486.954C636.085 488.837 636.893 490.721 637.692 492.609L639.793 497.61V497.61L641.432 500.889C643.208 504.456 644.926 508.075 646.018 511.767C653.092 515.544 658.869 521.706 659.152 530.149C659.402 537.779 655.442 545.859 648.752 549.748C642.151 553.591 635.355 552.078 629.034 549.144C623.523 550.748 617.624 550.951 612.165 549.238C607.962 553.042 602.541 555.669 596.532 556.378C587.472 557.454 578.872 554.918 570.561 551.583L569.982 551.349C569.722 551.248 569.462 551.138 569.212 551.029C559.652 550.569 550.132 546.788 543.351 540.089C541.142 537.919 539.232 535.439 537.692 532.659C532.101 522.548 531.232 510.138 536.732 500.109C535.552 500.159 534.362 500.208 533.182 500.239C517.447 500.687 501.685 499.884 485.99 498.85L482.29 498.599C472.134 497.868 457.157 496.146 456.872 483.559C456.831 481.949 458.492 480.739 460.012 481.169C465.782 482.798 471.452 485.359 477.432 486.279C485.252 487.489 493.351 487.619 501.252 488.059L503.524 488.185C519.455 489.057 535.958 489.588 551.632 486.429C563.331 484.079 575.522 479.798 586.242 474.498C596.532 469.399 605.882 462.729 613.422 454.019C630.032 434.859 632.232 407.829 631.422 383.589C630.442 354.638 627.041 325.729 625.122 296.819L624.253 283.831C623.537 273 622.883 262.154 622.612 251.319C622.412 243.409 622.541 235.479 622.581 227.569C622.601 223.619 622.552 219.649 622.642 215.699C622.692 213.479 622.952 211.309 623.142 209.138C622.262 208.679 621.442 208.038 620.702 207.189C620.122 206.519 619.672 205.809 619.362 205.089C615.632 203.998 613.902 202.548 611.482 199.259C609.442 196.489 607.132 193.929 604.662 191.529C599.402 186.429 593.392 182.259 587.041 178.628C573.912 171.119 559.532 166.099 545.032 161.979C522.831 155.679 499.772 152.439 477.242 147.378C471.032 156.038 464.452 164.439 457.572 172.569C436.101 197.929 411.482 220.538 385.101 240.699C379.732 244.809 374.291 248.859 368.772 252.788C361.5 263.874 354.153 274.907 346.695 285.867L343.492 290.559L343.442 290.649C343.002 291.319 342.581 291.989 342.162 292.659C341.272 294.079 340.272 295.449 339.212 296.779C338.522 297.788 337.822 298.798 337.112 299.809C338.472 300.538 339.712 301.359 340.682 302.269C342.662 304.138 342.331 307.109 340.682 309.009C335.362 315.149 326.942 307.149 320.822 305.019C314.192 307.038 308.662 314.929 305.912 320.958C301.952 329.649 300.362 340.128 302.152 349.538C303.791 358.138 308.212 365.569 315.562 370.229C315.822 370.388 316.101 370.559 316.372 370.708C316.382 370.729 316.382 370.729 316.392 370.718C316.642 370.878 316.902 371.029 317.162 371.169C320.612 373.069 324.402 374.189 328.331 374.458C330.581 374.619 332.932 374.498 335.182 374.769C337.492 375.038 339.392 376.099 341.612 376.659C344.062 377.288 345.642 380.579 344.101 382.788C343.342 383.878 342.622 384.919 341.851 385.849C344.382 388.829 346.581 392.119 348.572 395.248C351.291 399.538 353.702 404.089 355.902 408.729C357.932 411.399 359.872 414.119 361.752 416.899C372.402 432.679 380.552 450.259 385.562 468.628C390.522 486.798 393.622 507.208 389.032 525.759C384.802 542.819 372.452 556.949 354.172 557.859C350.357 558.047 346.605 557.621 343.077 556.652C335.327 561.439 325.723 563.847 317.128 564.128C310.174 564.356 302.562 562.892 296.883 558.687C290.146 561.619 282.838 563.283 276.483 563.662C269.372 564.086 261.93 562.148 256.133 558.31C250.617 563.035 244.665 567.023 237.902 569.759C226.272 574.458 212.432 573.878 201.782 566.849C191.112 559.809 185.682 547.169 188.942 534.628C191.942 523.069 201.372 514.589 210.232 507.288L211.982 505.853C220.746 498.7 229.597 491.777 235.222 481.699C241.192 471.009 243.372 458.589 243.962 446.489C245.242 419.849 239.822 393.449 238.172 366.949C236.472 339.579 237.422 312.128 241.152 284.958C248.402 232.179 267.482 180.439 302.002 139.298C306.996 133.345 312.342 127.671 317.976 122.293C322.282 116.661 326.936 111.382 331.995 106.654ZM791.171 408.009C791.361 408.019 791.541 408.029 791.711 408.099C791.825 408.147 791.921 408.223 792.01 408.307L792.851 409.149C793.151 409.449 793.131 409.909 792.851 410.209C792.606 410.481 792.162 410.49 791.873 410.278L791.791 410.209L790.92 409.337C790.825 409.234 790.743 409.122 790.701 408.979C790.661 408.839 790.661 408.679 790.651 408.529C790.641 408.259 790.901 408.009 791.171 408.009ZM321.991 326.309C330.011 323.878 339.631 329.659 344.411 335.759C346.811 338.819 347.491 343.009 344.411 346.019C341.791 348.579 336.671 349.048 334.141 346.019C331.271 342.569 328.931 337.788 324.831 335.579C320.381 333.179 314.421 333.779 313.371 339.628C313.191 340.619 311.771 340.288 311.711 339.399C311.321 333.479 316.511 327.958 321.991 326.309Z" fill="black"/>
<path fill-rule="evenodd" clip-rule="evenodd" d="M548.945 401C560.659 401.831 571.739 409.099 581.816 414.717C591.514 420.511 598.692 429.095 604.426 438.666L604.798 439.292C605.134 439.791 604.534 440.352 604.042 440.161L603.965 440.125C594.448 435.35 584.406 431.48 575.062 426.271C565.938 420.63 554.734 418.702 545.541 413.571C540.287 409.676 541.864 401.301 548.945 401ZM518.476 406.683C518.903 409.355 517.824 413.596 514.316 414.835C508.153 417.009 502.54 418.181 496.35 419.877L488.325 422.125C472.91 426.467 457.264 431.128 443.617 437.968L443.189 437.78C433.276 431.578 488.04 405.704 506.949 401.582C510.423 400.824 517.831 402.651 518.476 406.683Z" fill="black"/>
<path fill-rule="evenodd" clip-rule="evenodd" d="M464.675 756C459.839 778.571 447.957 799.215 431.409 815.574C425.08 821.83 418.157 827.4 410.802 832.185L409.918 832.736C403.391 836.671 387.347 844.043 388.582 852.872C389.853 861.946 415.992 876.148 423.116 876.155C424.737 876.155 425.655 878.874 423.999 879.663C411.088 885.787 399.811 888.411 387.185 881.94C378.749 891.189 370.555 900.759 362.439 910.245C348.086 927.031 352.997 944.755 369.957 957.252C397.208 977.334 438.631 976.845 470.426 975.385C502.428 973.918 536.636 966.253 561.633 943.361L562.722 942.342C576.308 929.367 588.717 907.379 567.911 894.883C559.764 889.988 550.961 890.277 543.226 887.897C535.987 903.135 524.244 915.34 509.915 917.695C498.335 919.597 490.36 903.966 500.894 896.489L503.261 894.91C516.488 885.844 527.775 871.879 527.476 853.693C527.272 841.069 510.856 825.124 500.161 836.986L499.672 837.554C490.722 848.387 474.96 834.735 480.846 822.732L481.128 822.187" fill="white"/>
<path fill-rule="evenodd" clip-rule="evenodd" d="M464.162 412.672C471.415 411.272 480.438 414.322 487.671 415.658L488.21 415.755C496.981 417.287 505.733 419.139 514.601 420.043C523.067 420.908 531.713 421.063 540.18 420.09C544.246 419.622 548.277 418.826 552.227 417.758C553.917 417.301 555.593 416.791 557.249 416.225L557.437 416.153C558.653 415.651 561.943 413.758 561.904 414.813C562.829 413.746 564.103 412.989 565.502 412.621C567.476 412.102 570.01 412.589 571.662 413.985C573.811 412.283 577.035 413.504 578.476 415.542C580.948 419.037 580.143 423.134 579.824 427.188L579.797 427.546C579.526 431.368 579.111 435.164 578.599 438.957L578.373 440.583C577.576 446.194 577.357 455.448 570.558 457.287C565.181 458.743 560.26 453.21 556.794 448.819L554.896 446.387C552.649 443.536 550.609 440.601 548.965 437.36C548.216 435.885 547.492 434.374 546.865 432.843C546.786 432.65 546.728 432.477 546.668 432.303C536.696 433.645 526.488 433.453 516.49 432.135C510.16 431.3 503.924 430.094 497.782 428.474L495.011 433.483C491.769 439.324 488.48 445.147 485.022 450.856L484.754 451.291C481.518 456.44 476.099 461.596 469.692 457.74C463.959 454.288 463.715 446.436 463.111 440.577C462.708 436.663 462.381 432.723 462.224 428.787L462.167 427.101C462.064 423.285 461.443 418.862 462.91 415.293C463.123 414.773 463.87 414.373 464.32 414.92C467.385 418.646 468.312 424.421 469.636 428.994C471.11 434.082 473.245 439.639 474.011 444.917L474.225 444.545V444.545C474.98 443.112 475.75 441.686 476.523 440.262L478.843 435.991C480.924 432.135 483.043 428.303 485.181 424.48C482.74 423.563 480.321 422.577 477.912 421.576L472.445 419.29C469.322 417.971 466.138 416.482 463.79 414.082C463.374 413.657 463.519 412.795 464.162 412.672ZM567.88 426.76C562.493 428.95 556.921 430.53 551.248 431.578C551.614 431.953 551.979 432.328 552.319 432.722C553.654 434.267 555.071 435.751 556.495 437.218L557.35 438.097C559.532 440.336 562.81 444.023 566.155 446.166L566.336 445.199C566.366 445.032 566.389 444.887 566.401 444.775L566.758 441.594C566.815 441.064 566.871 440.533 566.924 440.002C567.212 437.133 567.441 434.258 567.681 431.385C567.807 429.871 567.837 428.316 567.88 426.76ZM504.13 241.893C516.96 236.413 532.187 239 543.238 247.278C554.546 255.749 559.491 269.521 560.145 283.261C569.088 275.625 581.967 281.405 589.499 288.56C598.191 296.817 602.587 309.278 600.561 321.104C598.542 332.89 590.013 343.288 578.474 346.793C572.953 348.47 566.8 348.508 561.246 346.948C559.36 346.417 557.049 345.595 554.914 344.45C555.036 344.94 555.16 345.431 555.276 345.92C558.047 357.649 559.618 370.833 555.46 382.432C548.777 401.071 525.04 411.505 510.22 394.961C504.401 388.466 499.878 378.294 500.23 369.439C500.415 364.786 503.051 359.403 508.493 359.718C512.713 359.961 514.714 363.493 513.634 367.23L513.568 367.446C511.28 374.591 515.186 384.915 520.845 389.788C529.523 397.261 541.432 390.758 546.177 381.995C551.707 371.782 551.034 358.688 549.266 347.577C547.53 336.667 543.659 326.688 539.55 316.593C539.114 316.672 538.672 316.745 538.22 316.806C530.048 317.915 513.421 318.333 504.392 312.413C505.362 321.55 503.459 330.956 498.268 338.693C492.484 347.315 483.77 351.878 473.628 353.276C463.778 354.636 452.36 354.911 442.635 352.577C421.926 347.607 414.624 322.04 420.887 303.584C424.592 292.667 434.93 282.848 446.421 280.368C452.341 276.474 460.29 275.321 467.122 275.852C477.326 276.647 487.376 281.056 494.21 288.799C496.821 291.757 498.968 295.106 500.623 298.69C501.179 298.252 501.827 297.923 502.559 297.751C503.702 297.483 504.702 297.423 505.82 297.817C506.377 298.014 507.18 298.71 507.663 299.162L508.767 300.458C510.119 302.034 511.406 303.357 513.814 304.337C520.528 307.07 529.634 307.663 536.767 307.104C554.967 305.68 552.675 281.573 548.192 269.188C542.882 254.516 527.662 245.389 512.178 247.995C505.525 249.114 499.178 252.655 494.308 257.282C488.872 262.448 486.544 268.688 483.283 275.227C483.09 275.614 482.424 275.53 482.341 275.103C479.661 261.315 492.369 246.917 504.13 241.893ZM407.194 353.055C406.641 352.406 407.367 351.265 408.159 351.803C413.96 355.744 420.411 358.588 427.424 359.357C430.718 359.717 434.038 359.742 437.319 359.237C440.114 358.805 442.633 357.953 445.423 358.723C446.908 359.133 447.178 360.856 446.271 361.936C442.056 366.953 431.679 365.613 426.021 364.268C418.704 362.53 412.071 358.785 407.194 353.055ZM602.406 343.895C605.254 342.13 608.644 345.625 606.96 348.448C602.636 355.691 590.103 356.281 582.832 354.547C582.263 354.413 582.393 353.52 582.969 353.536C587.148 353.639 590.925 352.836 594.525 350.656C597.601 348.793 599.436 345.735 602.406 343.895ZM463.443 285.996L462.872 286.001C456.224 286.108 450.136 288.643 443.73 289.983C443.199 290.095 442.666 290.038 442.185 289.862C434.383 295.067 429.005 303.251 428.275 314.02C427.769 321.479 429.59 329.606 434.019 335.727C439.06 342.693 447.181 343.769 455.178 343.976L455.991 343.995C471.109 344.29 487.741 343.397 493.13 326.495C497.118 313.986 492.859 298.8 481.75 291.307C476.355 287.668 469.911 285.99 463.443 285.996ZM585.242 294.967L584.798 294.449C578.869 287.646 569.467 281.449 560.198 284.876L560.225 286.021C560.228 286.213 560.23 286.404 560.23 286.595C560.202 299.733 555.111 311.994 542.598 315.849C545.955 320.638 548.652 325.952 550.812 331.467C551.574 330.969 552.501 330.653 553.577 330.544C557.982 330.098 560.506 334.235 564.326 335.778C567.902 337.224 571.958 337.597 575.733 336.85C583.991 335.217 589.785 328.096 591.815 320.194C594.11 311.261 591.078 301.896 585.242 294.967ZM459.535 306.024C462.288 301.372 469.082 302.045 471.805 306.146L471.936 306.351L471.965 306.313C476.501 312.191 474.309 321.475 467.723 324.78C462.44 327.429 455.721 326.734 452.209 321.577C451.422 320.421 450.917 319.061 450.732 317.684C450.606 316.747 450.678 315.811 450.888 314.88L450.834 315.098C450.939 314.628 451.104 313.891 451.147 313.716C451.611 311.82 452.724 309.786 454.117 308.413C455.552 306.999 457.545 306.139 459.535 306.024ZM572.703 301.192C575.142 301.192 577.306 302.212 579.068 303.829C581.574 306.13 581.923 309.442 581.382 312.585C581.216 313.544 580.988 314.471 580.749 315.415L580.543 316.269C580.507 316.41 580.468 316.551 580.425 316.69C580.275 317.275 580.036 317.812 579.752 318.326C578.709 322.209 574.486 324.137 570.763 323.29C569.011 322.891 567.264 321.437 566.372 319.913C566.078 319.411 565.872 318.911 565.726 318.409L565.001 316.69V316.69C564.865 316.278 564.78 315.836 564.671 315.415C564.428 314.472 564.194 313.543 564.025 312.585C563.45 309.337 563.908 306.259 566.339 303.829C567.971 302.196 570.396 301.192 572.703 301.192ZM518.98 267.508C523.213 266.94 527.524 268.912 529.713 272.651C531.615 275.901 531.607 280.274 529.713 283.524L529.553 283.799V283.799C526.064 289.785 517.927 290.553 513.032 285.928L512.795 285.704V285.704C509.647 282.731 508.938 277.8 510.568 273.938C512.058 270.406 515.182 268.019 518.98 267.508Z" fill="black"/>
</svg>
