<svg width="818" height="1208" viewBox="0 0 818 1208" fill="none" xmlns="http://www.w3.org/2000/svg">
<path fill-rule="evenodd" clip-rule="evenodd" d="M47.9999 825.797L764.472 882.675L765.222 887.544C777.228 965.734 783.292 1018.78 783.415 1046.68L783.417 1047.54C783.417 1075.2 791.91 1119.21 808.896 1179.54L809.947 1183.26L46.9999 1184.59L37.9999 1002.97L47.9999 825.797ZM472.17 436.091C501.302 437.529 530.662 450.018 532.93 458C537.98 475.777 546.102 551.874 572.812 563.565C599.521 575.256 656.543 564.598 672.846 592.517C689.149 620.437 742.69 734.25 742.69 760.769C742.69 778.449 568.208 784.586 219.244 779.18C223.698 636.778 242.271 561.922 274.961 554.612L277.88 553.967C325.155 543.64 353.41 543.307 369.537 526.66C385.993 509.672 388.98 480.514 395.807 458C399.568 445.595 436.421 434.327 472.17 436.091Z" fill="white"/>
<path fill-rule="evenodd" clip-rule="evenodd" d="M536.057 480.597C536.167 480.512 536.278 480.487 536.397 480.547C538.667 481.637 539.137 483.817 539.917 486.087C541.057 489.407 542.377 492.647 543.597 495.937C546.028 502.537 548.347 509.127 551.057 515.617C553.837 522.297 556.717 528.857 560.017 535.307C561.607 538.427 563.317 541.487 565.057 544.527C566.257 546.637 567.377 549.537 568.957 551.517C569.077 550.887 569.247 550.287 569.447 549.727C569.238 549.827 569.037 549.937 568.847 550.057C568.447 550.307 567.967 549.807 568.207 549.417C569.067 547.997 570.187 547.037 571.467 546.387C575.007 542.457 653.036 561.212 674.367 582.277C713 620.428 739.077 667.597 756.227 717.777C765.697 745.467 774.417 773.427 783.427 801.267C792.947 830.707 802.887 860.017 812.427 889.437C814.517 895.907 809.957 901.787 804.197 903.917C793.467 907.877 782.657 911.607 771.757 915.057C777.047 935.367 780.747 956.107 783.407 976.907C788.897 1019.8 789.587 1063.56 798.238 1106C800.224 1115.74 802.737 1125.34 805.392 1134.92L806.007 1137.13C807.587 1142.75 809.028 1148.42 810.967 1153.92C812.637 1158.65 814.797 1163.42 815.967 1168.3C817.337 1174.04 815.317 1180.31 809.947 1183.26C805.637 1185.63 799.467 1184.65 796.867 1180.2C796.337 1179.29 796.017 1178.3 795.887 1177.3C795.497 1176.47 795.137 1175.62 794.817 1174.75C794.692 1174.41 794.582 1174.06 794.477 1173.72L794.167 1172.68C793.407 1170.2 792.707 1167.7 792.007 1165.2C790.867 1161.19 789.72 1157.19 788.452 1153.21L787.807 1151.23C784.667 1141.67 781.857 1132.03 779.407 1122.27C770.639 1087.27 768.779 1051.04 766.372 1015.17L766.247 1013.32C764.067 981.177 762.767 949.107 765.437 917.037L765.072 917.155V917.155L764.707 917.267C761.238 918.327 757.757 919.367 754.267 920.377C754.157 920.417 754.057 920.457 753.947 920.487C751.714 921.178 749.418 921.835 747.083 922.446L745.677 922.807L744.687 923.077L743.645 923.373C740.338 924.332 736.966 925.435 733.537 925.327C727.857 926.237 722.077 926.787 716.397 926.807C718.147 955.417 720.167 984.007 722.577 1012.57C724.997 1041.28 728.207 1069.88 731.537 1098.48C733.177 1112.61 734.937 1126.71 736.877 1140.79C737.857 1147.93 738.877 1155.03 740.177 1162.11C741.517 1169.35 743.887 1177.09 742.457 1184.41C742.427 1184.4 742.397 1184.39 742.367 1184.39C741.887 1186.51 740.607 1188.41 738.377 1189.72C734.287 1192.11 728.567 1190.71 726.217 1186.53C726.017 1186.18 725.827 1185.82 725.647 1185.45C723.238 1186.48 720.597 1186.88 717.357 1186.91L673.417 1187.35V1187.35C653.447 1187.55 633.477 1187.76 613.497 1188.05C550.768 1188.97 488.039 1190.04 425.31 1190.8L401.787 1191.07C366.507 1191.44 331.207 1192.17 295.927 1192.16C278.278 1192.16 260.647 1192.1 242.997 1191.67C234.447 1191.46 225.917 1191.13 217.377 1190.78L215.869 1190.71C209.052 1190.37 201.813 1189.74 195.147 1191.27C193.307 1194.85 188.607 1195.59 186.147 1191.93C180.525 1183.55 178.991 1171.87 177.953 1161.63L177.587 1157.95C176.437 1146.48 175.427 1135.01 174.677 1123.52C172.017 1082.81 171.047 1042.06 172.267 1001.27C172.887 980.477 174.797 959.807 177.057 939.137C177.767 932.687 178.507 926.247 179.307 919.817L179.321 917.53C179.322 916.799 179.317 916.102 179.297 915.447L179.098 909.242C178.932 904.071 178.778 898.897 178.714 893.722L178.687 890.617L178.657 884.837C173.717 884.367 168.447 882.727 164.187 881.937C157.278 880.647 150.387 879.257 143.517 877.787C129.757 874.827 116.147 871.327 102.627 867.457L99.7516 866.631C87.2763 863.036 74.6291 859.203 62.827 853.827C58.207 851.717 53.597 849.337 49.547 846.217C49.307 849.497 48.937 852.767 48.717 856.017C48.278 862.447 47.757 868.857 47.327 875.287L46.9158 881.405C46.2403 891.598 45.632 901.782 45.357 912.007C44.137 956.607 43.927 1001.4 46.287 1045.97C47.457 1068.28 49.127 1090.59 51.537 1112.81C52.717 1123.74 53.967 1134.7 55.507 1145.59C57.097 1156.78 59.967 1167.9 60.847 1179.17C61.687 1190.04 45.067 1191.62 42.337 1181.68C39.0681 1169.76 38.2353 1156.9 36.5123 1144.65L36.317 1143.29C34.407 1130.27 32.877 1117.2 31.557 1104.11C26.9997 1058.96 25.817 1013.58 28.207 968.257C29.3433 946.552 32.0374 924.93 35.2983 903.454L35.677 900.977C37.1614 891.359 38.5511 881.741 40.2322 872.166L40.877 868.577C42.387 860.347 43.547 851.397 45.997 843.167L45.2687 842.495C43.9072 841.227 42.4316 839.759 41.357 838.177C37.657 837.677 34.507 835.017 34.897 830.187C36.167 814.317 41.967 798.177 47.137 783.197C52.327 768.137 58.347 753.357 65.167 738.957C89.157 688.347 123.707 642.397 165.957 605.587C188.367 586.057 212.927 568.737 240.067 556.407C253.447 550.317 267.287 545.607 281.787 543.067C288.967 541.807 296.217 540.827 303.517 540.617C309.439 537.12 316.471 538.592 322.206 542.425L322.517 542.637H322.528L323.997 542.927V542.927C324.357 542.997 324.347 543.567 323.997 543.647C323.977 543.647 323.947 543.657 323.927 543.667C324.867 544.407 325.757 545.197 326.587 546.047C329.327 548.847 329.317 552.227 327.907 554.957C336.297 562.737 341.597 572.727 347.147 582.797C353.097 593.577 360.887 602.897 370.367 610.757C405.117 639.577 456.227 652.327 499.767 638.717C531.787 628.717 559.137 601.647 566.697 569.057C564.907 569.697 562.967 569.797 561.127 569.137C552.486 566.056 549.192 556.613 545.887 548.718L545.727 548.337C542.497 540.687 539.787 532.917 537.647 524.897C535.488 516.797 534.217 508.247 533.687 499.887C533.482 496.581 533.572 493.276 533.743 489.97L533.895 487.237C534.012 484.761 533.976 482.23 536.057 480.597ZM395.467 458.307C395.587 458.007 396.057 457.847 396.237 458.207C403.886 473.987 398.867 495.607 391.636 510.657C384.067 526.397 372.667 538.337 359.157 548.667C357.297 550.087 355.386 551.487 353.447 552.857C342.176 560.817 332.136 539.357 345.147 535.257C358.707 528.367 369.727 516.087 377.386 503.187C381.527 496.217 385.197 488.957 388.007 481.337C390.807 473.737 392.487 465.827 395.467 458.307Z" fill="black"/>
<path fill-rule="evenodd" clip-rule="evenodd" d="M525.007 799.969C517.617 809.41 509.797 828.62 502.617 838.23C501.587 839.609 500.577 840.99 499.577 842.379C496.597 846.549 500.577 852.929 505.477 852.66C515.267 852.139 525.047 851.41 534.827 850.67C514.737 873.059 498.057 900.87 479.607 924.589C478.357 926.179 477.127 927.78 475.897 929.379C471.227 935.469 475.907 938.23 482.287 936.589C483.607 936.25 484.927 935.91 486.247 935.58C495.527 933.2 504.797 930.82 514.077 928.45C519.207 927.129 524.367 925.5 529.567 924.49C531.707 924.08 533.757 924.42 535.777 924.53C534.807 926.009 533.447 928.679 533.177 929.089C530.147 933.809 527.097 938.509 524.027 943.189C518.047 952.29 512.037 961.379 505.807 970.309C481.507 1005.13 455.297 1038.37 429.317 1071.92C422.777 1080.36 416.147 1088.71 409.407 1096.98C409.437 1096.93 409.457 1096.88 409.487 1096.83C415.557 1085.01 421.627 1073.2 427.697 1061.38C439.237 1038.92 450.667 1016.4 462.327 994C462.927 992.83 463.537 991.67 464.147 990.5C466.567 985.859 462.597 981.04 457.627 982.019C433.381 986.796 409.37 992.666 385.657 999.617C384.59 1000.75 383.021 1001.09 381.62 1000.81C380.667 1001.1 379.71 1001.37 378.757 1001.66C379.046 1001.06 379.345 1000.47 379.636 999.871C378.667 999.029 378.185 997.726 378.815 996.099C392.46 960.891 411.168 926.902 433.334 895.774C432.442 895.791 431.552 895.804 430.657 895.83C406.327 896.49 382.457 899.98 359.007 906.609C358.897 904.439 360.207 901.08 360.917 899.48C363.757 893.089 367.017 886.849 370.067 880.559C376.307 867.639 382.547 854.73 388.787 841.809C394.887 829.189 400.937 816.53 406.677 803.73C409.687 797.019 412.697 790.299 415.697 783.58C418.147 778.109 420.077 772.599 422.107 767C428.067 768.75 504.597 769.129 523.197 770.42C527.757 770.74 532.327 771.03 536.897 771.28C540.537 771.49 545.667 772.29 548.177 769L549.127 769.799C540.867 779.679 532.947 789.83 525.007 799.969V799.969Z" fill="white"/>
<path fill-rule="evenodd" clip-rule="evenodd" d="M539.007 805.969C531.617 815.41 523.797 834.62 516.617 844.23C515.587 845.609 514.577 846.99 513.577 848.379C510.597 852.549 514.577 858.929 519.477 858.66C529.267 858.139 539.047 857.41 548.827 856.67C528.737 879.059 512.057 906.87 493.607 930.589C492.357 932.179 491.127 933.78 489.897 935.379C485.227 941.469 489.907 944.23 496.287 942.589C497.607 942.25 498.927 941.91 500.247 941.58C509.527 939.2 518.797 936.82 528.077 934.45C533.207 933.129 538.367 931.5 543.567 930.49C545.707 930.08 547.757 930.42 549.777 930.53C548.807 932.009 547.447 934.679 547.177 935.089C544.147 939.809 541.097 944.509 538.027 949.189C532.047 958.29 526.037 967.379 519.807 976.309C495.507 1011.13 469.297 1044.37 443.317 1077.92C436.777 1086.36 430.147 1094.71 423.407 1102.98C423.437 1102.93 423.457 1102.88 423.487 1102.83C429.557 1091.01 435.627 1079.2 441.697 1067.38C453.237 1044.92 464.667 1022.4 476.327 1000C476.927 998.83 477.537 997.67 478.147 996.5C480.567 991.859 476.597 987.04 471.627 988.019C447.381 992.796 423.37 998.666 399.657 1005.62C398.59 1006.75 397.021 1007.09 395.62 1006.81C394.667 1007.1 393.71 1007.37 392.757 1007.66C393.046 1007.06 393.345 1006.47 393.636 1005.87C392.667 1005.03 392.185 1003.73 392.815 1002.1C406.46 966.891 425.168 932.902 447.334 901.774C446.442 901.791 445.552 901.804 444.657 901.83C420.327 902.49 396.457 905.98 373.007 912.609C372.897 910.439 374.207 907.08 374.917 905.48C377.757 899.089 381.017 892.849 384.067 886.559C390.307 873.639 396.547 860.73 402.787 847.809C408.887 835.189 414.937 822.53 420.677 809.73C423.687 803.019 426.697 796.299 429.697 789.58C432.147 784.109 434.077 778.599 436.107 773C442.067 774.75 518.597 775.129 537.197 776.42C541.757 776.74 546.327 777.03 550.897 777.28C554.537 777.49 559.667 778.29 562.177 775L563.127 775.799C554.867 785.679 546.947 795.83 539.007 805.969V805.969Z" fill="#FF6D03"/>
<path fill-rule="evenodd" clip-rule="evenodd" d="M633.529 304.003C631.376 285.088 634.162 245.552 634.349 243.15C635.529 227.965 628.414 168.002 614.964 173.527C592.402 155.666 562.351 151.722 534.251 149.838C475.884 145.924 413.791 154.909 368.721 194.189C346.432 214.588 324.733 244.257 326.477 275.149C306.226 304.431 277.677 344.598 302.909 378.831C311.485 389.768 325.117 393.841 335.891 402.124C357.563 419.604 371.159 444.69 393.036 462.066C450.997 514.149 549.414 525.029 606.36 465.789C650.395 422.885 643.275 358.699 635.529 304.003C630.322 267.23 637.729 340.904 633.529 304.003Z" fill="white"/>
<path fill-rule="evenodd" clip-rule="evenodd" d="M456.28 69.6251C471.89 66.4751 487.919 64.5151 503.86 65.1051L505.089 65.1528C517.083 65.6322 532.273 66.6926 542.736 73.6671C543.338 73.0631 544.306 72.7531 545.184 73.1721C557.618 79.1071 571.294 83.3981 584.386 87.6621C597.418 91.9051 610.938 94.7061 624.597 95.8351C629.736 96.2601 634.134 101.809 630.88 106.786C630.106 107.972 629.352 109.17 628.601 110.371C629.857 110.24 631.113 110.105 632.369 109.978C636.502 109.562 640.631 113.973 640.386 117.997C640.233 120.528 639.96 123.029 639.556 125.5C641.13 125.467 642.695 125.703 644.207 126.342C651.863 129.575 651.33 138.694 650.757 145.632C649.963 155.26 646.362 165.458 639.676 172.664C644.668 177.849 648.202 184.041 650.31 191.395C651.839 196.765 652.69 202.485 652.27 208.075L652.136 209.749C651.617 215.815 650.584 222.531 646.22 226.895C643.98 229.145 641.22 229.965 638.589 229.705C640.18 243.685 641.2 257.745 642.16 271.755L642.61 278.451C644.752 310.831 646.361 343.422 645.94 375.855C645.549 406.165 639.56 435.585 620.97 460.195C604.039 482.605 579.73 499.125 552.23 505.405C537.41 508.795 522.28 509.035 507.28 506.875C500.009 505.825 492.69 504.215 485.789 501.675C478.15 498.855 472.66 494.705 467.52 488.485C465.089 485.535 466.259 479.255 471.1 479.845C478.421 480.733 485.105 481.803 492.124 483.968L493.129 484.285C500.12 486.525 507.36 488.195 514.669 488.905C529.64 490.355 544.839 488.895 559.18 484.355C582.53 476.955 602.64 460.465 615.53 439.745C630.83 415.185 632.56 387.305 632.339 359.065C632.102 328.077 631.094 297.07 629.449 266.114L629.169 260.955C628.299 245.025 627.459 229.085 626.72 213.145C626.49 208.145 626.14 203.105 625.509 198.115C619.74 194.735 614.57 190.075 611.2 184.325C604.43 187.125 597.31 189.145 590.759 190.755C575.585 194.487 559.831 195.393 544.386 193.056C540.22 194.777 535.971 196.29 531.657 197.592C530.491 198.109 529.325 198.617 528.16 199.115C517.759 203.565 507.209 207.335 496.23 210.095L493.533 210.768C487.755 212.192 481.479 213.595 475.33 214.035C474.32 214.425 473.23 214.755 472.039 215.045C466.44 216.405 460.629 216.835 454.89 216.355C449.299 215.885 445.259 210.235 448.339 204.945C450.589 201.085 452.86 197.235 455.15 193.395C447.18 196.715 438.95 199.475 430.65 201.815C422.27 204.175 413.77 206.165 405.259 207.995C400.709 208.965 396.14 209.825 391.6 210.795C388.35 211.485 383.36 211.845 380.709 213.985C377.78 216.335 376.95 221.815 375.839 225.195C374.379 229.585 373.009 233.995 371.759 238.455C369.27 247.355 367.23 256.385 365.65 265.505C364.07 274.635 363.009 283.855 362.419 293.105C361.83 302.345 362.089 311.645 361.14 320.845C360.629 325.725 355.39 328.235 351.52 324.825C351.066 324.425 350.608 324.021 350.155 323.612L349.48 322.995C346.169 319.995 342.959 316.815 340.31 313.235C339.83 312.575 339.37 311.885 338.94 311.185C338.87 311.185 338.81 311.165 338.74 311.115L338.006 310.562C329.918 304.543 316.406 296.694 308.52 306.695C306.007 309.881 304.72 313.938 303.653 317.851L301.779 324.856C300.567 329.428 299.426 334.026 298.759 338.705C297.249 349.185 298.009 361.265 305.22 369.665C308.1 373.025 312.07 375.425 316.499 376.055C318.97 376.395 321.41 375.975 323.86 375.665C326.35 375.355 328.749 375.855 331.24 375.615C335.2 375.225 336.93 379.965 335.45 382.945C334.65 384.545 333.709 385.925 332.64 387.095C333.499 387.835 334.32 388.635 335.11 389.475C337.45 390.225 339.549 391.835 341.12 393.965C342.39 395.685 343.049 397.555 343.16 399.525C343.299 400.015 343.419 400.515 343.53 401.025L345.675 404.507C346.147 405.271 346.617 406.025 347.089 406.765C352.549 415.365 358.61 422.645 366.14 429.505C373.39 436.105 381.259 442.015 388.07 449.095L388.872 449.936C395.222 456.627 401.915 464.726 399.43 474.455C398.79 476.955 395.299 478.755 393.02 477.065C385.69 471.625 381.999 463.005 375.78 456.405C369.379 449.605 362.289 443.495 355.87 436.715C349.799 430.315 345.009 423.065 341.4 415.085C339.959 416.675 337.86 417.805 334.95 418.245C329.95 418.995 325.289 416.065 323.11 411.735C321.709 412.355 320.28 412.915 318.839 413.355C311.259 415.675 306.49 407.245 309.35 401.015C310.879 397.675 312.789 394.775 315.16 392.335C307.749 391.315 300.209 387.485 295.339 382.705C283.12 370.695 281.44 352.645 284.19 336.595C285.65 328.085 288.169 319.475 291.44 311.485C292.009 310.095 292.62 308.695 293.289 307.315C292.919 307.305 292.539 307.145 292.299 306.835C290.089 303.815 287.4 301.345 285.759 297.965C284.249 294.865 282.57 291.725 281.379 288.495C278.93 281.885 277.73 274.425 276.93 267.435C275.28 253.125 275.919 238.905 278.11 224.685C281.839 200.465 290.847 177.287 304.118 156.949C303.395 156.569 302.703 156.111 302.058 155.569L301.739 155.291L301.221 154.823C297.434 151.396 297.761 144.973 301.221 141.502L302.314 140.407C303.698 139.032 304.891 137.943 307.126 136.446C307.456 136.225 307.793 136.017 308.134 135.823C306.964 133.661 306.558 131.133 307.373 128.344C310.213 118.628 324.193 118.972 333.054 123.209C342.857 114.46 353.727 106.865 365.509 100.715C393.57 86.0751 425.299 75.8651 456.28 69.6251ZM311.23 325.525C316.47 323.815 323.43 327.405 328.14 329.565C334.11 332.305 339.19 336.355 344.11 340.635C346.56 342.775 346.999 346.275 346.39 349.265C346.329 349.565 346.27 349.875 346.199 350.185C345.549 353.375 341.989 355.885 338.839 355.795C332.249 355.615 329.11 349.925 325.379 345.105C324.94 345.885 324.39 346.605 323.709 347.145L323.249 347.505C321.701 348.684 319.995 349.626 317.949 349.535C316.499 349.465 315.11 349.095 313.829 348.425C310.629 346.735 309.22 342.595 310.089 339.225C310.629 337.105 311.869 335.445 313.489 334.295L312.885 333.882C311.593 332.983 310.415 332.035 309.497 330.636L309.289 330.305H309.369C308.369 328.585 309.02 326.245 311.23 325.525Z" fill="black"/>
<path fill-rule="evenodd" clip-rule="evenodd" d="M462.162 400.672C469.415 399.272 478.438 402.322 485.671 403.658L486.21 403.755C494.981 405.287 503.733 407.139 512.601 408.043C521.067 408.908 529.713 409.063 538.18 408.09C542.246 407.622 546.277 406.826 550.227 405.758C551.917 405.301 553.593 404.791 555.249 404.225L555.437 404.153C556.653 403.651 559.943 401.758 559.904 402.813C560.829 401.746 562.103 400.989 563.502 400.621C565.476 400.102 568.01 400.589 569.662 401.985C571.811 400.283 575.035 401.504 576.476 403.542C578.948 407.037 578.143 411.134 577.824 415.188L577.797 415.546C577.526 419.368 577.111 423.164 576.599 426.957L576.373 428.583C575.576 434.194 575.357 443.448 568.558 445.287C563.181 446.743 558.26 441.21 554.794 436.819L552.896 434.387C550.649 431.536 548.609 428.601 546.965 425.36C546.216 423.885 545.492 422.374 544.865 420.843C544.786 420.65 544.728 420.477 544.668 420.303C534.696 421.645 524.488 421.453 514.49 420.135C508.16 419.3 501.924 418.094 495.782 416.474L493.011 421.483C489.769 427.324 486.48 433.147 483.022 438.856L482.754 439.291C479.518 444.44 474.099 449.596 467.692 445.74C461.959 442.288 461.715 434.436 461.111 428.577C460.708 424.663 460.381 420.723 460.224 416.787L460.167 415.101C460.064 411.285 459.443 406.862 460.91 403.293C461.123 402.773 461.87 402.373 462.32 402.92C465.385 406.646 466.312 412.421 467.636 416.994C469.11 422.082 471.245 427.639 472.011 432.917L472.225 432.545V432.545C472.98 431.112 473.75 429.686 474.523 428.262L476.843 423.991C478.924 420.135 481.043 416.303 483.181 412.48C480.74 411.563 478.321 410.577 475.912 409.576L470.445 407.29C467.322 405.971 464.138 404.482 461.79 402.082C461.374 401.657 461.519 400.795 462.162 400.672ZM565.88 414.76C560.493 416.95 554.921 418.53 549.248 419.578C549.614 419.953 549.979 420.328 550.319 420.722C551.654 422.267 553.071 423.751 554.495 425.218L555.35 426.097C557.532 428.336 560.81 432.023 564.155 434.166L564.336 433.199C564.366 433.032 564.389 432.887 564.401 432.775L564.758 429.594C564.815 429.064 564.871 428.533 564.924 428.002C565.212 425.133 565.441 422.258 565.681 419.385C565.807 417.871 565.837 416.316 565.88 414.76ZM502.13 229.893C514.96 224.413 530.187 227 541.238 235.278C552.546 243.749 557.491 257.521 558.145 271.261C567.088 263.625 579.967 269.405 587.499 276.56C596.191 284.817 600.587 297.278 598.561 309.104C596.542 320.89 588.013 331.288 576.474 334.793C570.953 336.47 564.8 336.508 559.246 334.948C557.36 334.417 555.049 333.595 552.914 332.45C553.036 332.94 553.16 333.431 553.276 333.92C556.047 345.649 557.618 358.833 553.46 370.432C546.777 389.071 523.04 399.505 508.22 382.961C502.401 376.466 497.878 366.294 498.23 357.439C498.415 352.786 501.051 347.403 506.493 347.718C510.713 347.961 512.714 351.493 511.634 355.23L511.568 355.446C509.28 362.591 513.186 372.915 518.845 377.788C527.523 385.261 539.432 378.758 544.177 369.995C549.707 359.782 549.034 346.688 547.266 335.577C545.53 324.667 541.659 314.688 537.55 304.593C537.114 304.672 536.672 304.745 536.22 304.806C528.048 305.915 511.421 306.333 502.392 300.413C503.362 309.55 501.459 318.956 496.268 326.693C490.484 335.315 481.77 339.878 471.628 341.276C461.778 342.636 450.36 342.911 440.635 340.577C419.926 335.607 412.624 310.04 418.887 291.584C422.592 280.667 432.93 270.848 444.421 268.368C450.341 264.474 458.29 263.321 465.122 263.852C475.326 264.647 485.376 269.056 492.21 276.799C494.821 279.757 496.968 283.106 498.623 286.69C499.179 286.252 499.827 285.923 500.559 285.751C501.702 285.483 502.702 285.423 503.82 285.817C504.377 286.014 505.18 286.71 505.663 287.162L506.767 288.458C508.119 290.034 509.406 291.357 511.814 292.337C518.528 295.07 527.634 295.663 534.767 295.104C552.967 293.68 550.675 269.573 546.192 257.188C540.882 242.516 525.662 233.389 510.178 235.995C503.525 237.114 497.178 240.655 492.308 245.282C486.872 250.448 484.544 256.688 481.283 263.227C481.09 263.614 480.424 263.53 480.341 263.103C477.661 249.315 490.369 234.917 502.13 229.893ZM405.194 341.055C404.641 340.406 405.367 339.265 406.159 339.803C411.96 343.744 418.411 346.588 425.424 347.357C428.718 347.717 432.038 347.742 435.319 347.237C438.114 346.805 440.633 345.953 443.423 346.723C444.908 347.133 445.178 348.856 444.271 349.936C440.056 354.953 429.679 353.613 424.021 352.268C416.704 350.53 410.071 346.785 405.194 341.055ZM600.406 331.895C603.254 330.13 606.644 333.625 604.96 336.448C600.636 343.691 588.103 344.281 580.832 342.547C580.263 342.413 580.393 341.52 580.969 341.536C585.148 341.639 588.925 340.836 592.525 338.656C595.601 336.793 597.436 333.735 600.406 331.895ZM461.443 273.996L460.872 274.001C454.224 274.108 448.136 276.643 441.73 277.983C441.199 278.095 440.666 278.038 440.185 277.862C432.383 283.067 427.005 291.251 426.275 302.02C425.769 309.479 427.59 317.606 432.019 323.727C437.06 330.693 445.181 331.769 453.178 331.976L453.991 331.995C469.109 332.29 485.741 331.397 491.13 314.495C495.118 301.986 490.859 286.8 479.75 279.307C474.355 275.668 467.911 273.99 461.443 273.996ZM583.242 282.967L582.798 282.449C576.869 275.646 567.467 269.449 558.198 272.876L558.225 274.021C558.228 274.213 558.23 274.404 558.23 274.595C558.202 287.733 553.111 299.994 540.598 303.849C543.955 308.638 546.652 313.952 548.812 319.467C549.574 318.969 550.501 318.653 551.577 318.544C555.982 318.098 558.506 322.235 562.326 323.778C565.902 325.224 569.958 325.597 573.733 324.85C581.991 323.217 587.785 316.096 589.815 308.194C592.11 299.261 589.078 289.896 583.242 282.967ZM457.535 294.024C460.288 289.372 467.082 290.045 469.805 294.146L469.936 294.351L469.965 294.313C474.501 300.191 472.309 309.475 465.723 312.78C460.44 315.429 453.721 314.734 450.209 309.577C449.422 308.421 448.917 307.061 448.732 305.684C448.606 304.747 448.678 303.811 448.888 302.88L448.834 303.098C448.939 302.628 449.104 301.891 449.147 301.716C449.611 299.82 450.724 297.786 452.117 296.413C453.552 294.999 455.545 294.139 457.535 294.024ZM570.703 289.192C573.142 289.192 575.306 290.212 577.068 291.829C579.574 294.13 579.923 297.442 579.382 300.585C579.216 301.544 578.988 302.471 578.749 303.415L578.543 304.269C578.507 304.41 578.468 304.551 578.425 304.69C578.275 305.275 578.036 305.812 577.752 306.326C576.709 310.209 572.486 312.137 568.763 311.29C567.011 310.891 565.264 309.437 564.372 307.913C564.078 307.411 563.872 306.911 563.726 306.409L563.001 304.69V304.69C562.865 304.278 562.78 303.836 562.671 303.415C562.428 302.472 562.194 301.543 562.025 300.585C561.45 297.337 561.908 294.259 564.339 291.829C565.971 290.196 568.396 289.192 570.703 289.192ZM516.98 255.508C521.213 254.94 525.524 256.912 527.713 260.651C529.615 263.901 529.607 268.274 527.713 271.524L527.553 271.799V271.799C524.064 277.785 515.927 278.553 511.032 273.928L510.795 273.704V273.704C507.647 270.731 506.938 265.8 508.568 261.938C510.058 258.406 513.182 256.019 516.98 255.508Z" fill="black"/>
</svg>
